<?xml version="1.0" standalone="no"?>
<!DOCTYPE svg PUBLIC "-//W3C//DTD SVG 20010904//EN"
 "http://www.w3.org/TR/2001/REC-SVG-20010904/DTD/svg10.dtd">
<svg version="1.0" xmlns="http://www.w3.org/2000/svg"
 width="1200.000000pt" height="628.000000pt" viewBox="0 0 1200.000000 628.000000"
 preserveAspectRatio="xMidYMid meet">

<g transform="translate(0.000000,628.000000) scale(0.100000,-0.100000)"
fill="#000000" stroke="none">
<path d="M3195 4343 c-42 -58 -43 -85 -9 -135 25 -36 26 -39 10 -63 -9 -14
-21 -25 -26 -25 -6 0 -10 -26 -10 -58 0 -80 -18 -95 -134 -111 -86 -12 -127
-24 -458 -140 -161 -57 -245 -67 -345 -42 -64 16 -73 34 -33 71 39 36 38 64
-4 106 -30 30 -41 34 -84 34 -90 0 -163 -76 -142 -150 11 -38 52 -85 92 -106
l27 -14 -44 -127 c-25 -69 -44 -128 -41 -130 2 -2 23 52 46 119 24 68 44 125
46 126 1 2 12 1 23 -3 21 -6 21 -9 21 -531 l0 -524 -210 0 c-115 0 -210 2
-210 3 0 2 9 30 20 62 11 32 18 60 16 62 -2 2 -14 -25 -26 -61 l-21 -65 -42
-3 -42 -3 55 -32 c275 -158 621 -162 915 -9 l80 41 -41 3 c-31 2 -44 9 -53 25
l-11 22 6 -22 5 -23 -215 0 -216 0 0 520 c0 495 1 520 18 520 10 0 25 -6 34
-12 9 -7 62 -142 119 -301 56 -158 104 -286 106 -283 2 2 -42 129 -97 283 -55
153 -100 284 -100 289 0 6 22 7 53 4 92 -9 191 8 330 56 257 90 341 114 428
126 143 19 129 105 126 -802 l-2 -765 -28 -57 c-47 -96 -130 -150 -264 -173
-61 -11 -82 -19 -100 -39 l-22 -26 -168 0 c-92 0 -185 -5 -206 -11 -42 -11
-77 -41 -77 -64 0 -13 112 -15 945 -15 525 0 945 4 945 9 0 21 -44 61 -78 71
-20 5 -113 10 -205 10 l-168 0 -23 26 c-17 21 -36 29 -83 35 -100 14 -171 46
-228 103 -89 89 -85 42 -85 903 0 879 -9 810 99 799 94 -10 194 -37 371 -101
85 -31 183 -63 218 -71 64 -15 223 -21 242 -9 16 10 12 -7 -25 -110 -20 -54
-34 -99 -32 -102 2 -2 21 45 42 104 39 110 47 123 78 123 16 0 17 -31 17 -520
l0 -520 -210 0 c-161 0 -210 3 -210 13 0 9 -2 9 -8 0 -4 -6 -25 -13 -47 -15
l-40 -3 48 -27 c64 -36 162 -75 255 -100 103 -28 333 -31 436 -5 85 21 181 60
253 101 l55 31 -38 3 c-45 4 -47 6 -75 90 -12 35 -23 61 -25 59 -4 -3 20 -78
41 -129 7 -17 -7 -18 -209 -18 l-216 0 0 524 c0 524 0 525 21 531 12 4 24 3
29 -2 4 -4 24 -56 45 -116 21 -59 40 -106 42 -104 2 2 -15 55 -37 118 l-41
114 23 15 c64 41 90 75 95 123 6 54 -10 87 -60 117 -42 26 -112 26 -154 0 -55
-33 -57 -107 -3 -135 17 -9 30 -21 30 -28 0 -8 -4 -7 -10 3 -8 13 -10 13 -10
-2 0 -21 -85 -42 -167 -41 -85 1 -143 16 -328 86 -187 70 -303 104 -389 113
-83 9 -106 30 -106 99 0 42 -5 56 -25 75 -30 28 -32 51 -6 74 38 34 37 72 -3
132 -20 30 -38 54 -41 54 -3 0 -20 -21 -40 -47z m-1027 -456 c3 -26 1 -28 -25
-25 -19 2 -28 8 -27 21 2 21 -24 23 -33 1 -3 -8 4 -25 17 -39 31 -33 17 -45
-15 -15 -29 28 -31 46 -8 72 12 13 28 18 52 16 31 -3 36 -7 39 -31z m2227 9
c18 -26 11 -50 -20 -76 -25 -20 -29 -4 -7 25 22 27 20 50 -4 59 -10 4 -14 -2
-14 -18 0 -15 -7 -26 -19 -29 -24 -6 -31 0 -31 28 0 29 8 35 46 35 24 0 38 -7
49 -24z m-2241 -91 c3 -8 1 -15 -4 -15 -6 0 -10 7 -10 15 0 8 2 15 4 15 2 0 6
-7 10 -15z"/>
<path d="M6632 4230 c-33 -15 -44 -26 -48 -49 -8 -37 -8 -35 -1 -71 7 -34 52
-60 137 -80 89 -20 110 -35 110 -75 0 -48 -28 -65 -108 -65 -58 0 -67 3 -92
30 -47 50 -91 35 -54 -18 25 -37 71 -54 143 -54 116 -1 181 51 165 131 -10 51
-59 80 -179 106 -50 11 -75 32 -75 64 0 39 21 54 85 59 50 4 56 2 86 -27 21
-22 37 -30 50 -26 26 9 24 27 -6 57 -42 43 -141 51 -213 18z"/>
<path d="M8385 4231 c-77 -35 -105 -85 -105 -185 0 -124 71 -198 188 -198 119
0 182 54 197 168 8 57 -7 125 -38 168 -43 61 -161 84 -242 47z m151 -40 c52
-24 74 -68 74 -149 0 -97 -49 -152 -138 -152 -78 0 -126 46 -138 132 -19 136
85 222 202 169z"/>
<path d="M6190 4045 l0 -195 160 0 c153 0 160 1 160 20 0 19 -7 20 -130 20
l-130 0 0 70 0 70 115 0 c108 0 115 1 115 20 0 19 -7 20 -115 20 l-115 0 0 65
0 65 120 0 c113 0 120 1 120 20 0 19 -7 20 -150 20 l-150 0 0 -195z"/>
<path d="M6930 4220 c0 -18 7 -20 65 -20 l65 0 0 -175 0 -175 25 0 25 0 0 175
0 175 70 0 c63 0 70 2 70 20 0 19 -7 20 -160 20 -153 0 -160 -1 -160 -20z"/>
<path d="M7310 4093 c0 -166 10 -197 72 -229 47 -25 138 -22 182 5 56 35 66
69 66 230 l0 141 -25 0 -25 0 0 -129 c0 -70 -5 -142 -11 -160 -22 -62 -122
-83 -176 -37 l-28 24 -3 151 -3 151 -25 0 -24 0 0 -147z"/>
<path d="M7720 4045 l0 -195 95 0 c136 0 189 25 226 105 45 97 12 218 -71 262
-37 20 -58 23 -147 23 l-103 0 0 -195z m221 132 c49 -32 71 -81 65 -139 -11
-100 -52 -138 -158 -146 l-68 -5 0 157 0 156 64 0 c49 0 71 -5 97 -23z"/>
<path d="M8140 4045 l0 -195 30 0 30 0 0 195 0 195 -30 0 -30 0 0 -195z"/>
<path d="M8900 4045 l0 -195 25 0 25 0 2 162 3 163 100 -162 c96 -155 101
-162 133 -163 l32 0 0 195 0 195 -26 0 -26 0 4 -159 c1 -88 0 -157 -3 -155 -4
2 -51 74 -104 159 -94 150 -98 155 -131 155 l-34 0 0 -195z"/>
<path d="M9426 4232 c-3 -5 -38 -88 -77 -183 -39 -96 -73 -180 -76 -186 -3 -9
4 -13 23 -13 26 0 31 6 52 60 l24 60 88 0 88 0 22 -60 c20 -54 25 -60 50 -60
l28 0 -77 193 c-76 188 -78 192 -108 195 -17 2 -34 -1 -37 -6z m69 -125 c16
-45 31 -85 33 -89 2 -5 -29 -8 -68 -8 -54 0 -71 3 -67 13 2 6 17 47 33 89 16
43 31 78 34 78 3 0 18 -37 35 -83z"/>
<path d="M9700 4045 l0 -195 125 0 c118 0 125 1 125 20 0 19 -7 20 -100 20
l-100 0 0 175 0 175 -25 0 -25 0 0 -195z"/>
<path d="M10020 4045 l0 -195 155 0 c148 0 155 1 155 20 0 19 -7 20 -130 20
l-130 0 0 70 0 70 115 0 c108 0 115 1 115 20 0 19 -7 20 -115 20 l-115 0 0 65
0 65 125 0 c118 0 125 1 125 20 0 19 -7 20 -150 20 l-150 0 0 -195z"/>
<path d="M4472 3448 c3 -7 13 -37 23 -66 9 -29 19 -52 21 -49 5 5 -36 127 -43
127 -3 0 -3 -6 -1 -12z"/>
<path d="M1961 3379 c-11 -34 -19 -64 -17 -66 2 -2 13 24 25 58 11 34 19 64
17 66 -2 2 -13 -24 -25 -58z"/>
<path d="M4106 3254 c-36 -103 -65 -189 -63 -191 2 -2 34 81 71 183 36 103 65
189 63 191 -2 2 -34 -81 -71 -183z"/>
<path d="M4522 3310 c31 -95 82 -230 85 -227 4 5 -75 229 -84 237 -3 3 -4 -2
-1 -10z"/>
<path d="M1866 3114 c-36 -103 -65 -189 -63 -191 2 -2 34 81 71 183 36 103 65
189 63 191 -2 2 -34 -81 -71 -183z"/>
<path d="M2422 3060 c34 -105 132 -370 135 -367 4 5 -125 369 -134 377 -3 3
-4 -2 -1 -10z"/>
<path d="M4612 3058 c3 -7 13 -37 23 -66 9 -29 19 -52 21 -49 5 5 -36 127 -43
127 -3 0 -3 -6 -1 -12z"/>
<path d="M3966 2864 c-36 -103 -65 -189 -63 -191 2 -2 34 81 71 183 36 103 65
189 63 191 -2 2 -34 -81 -71 -183z"/>
<path d="M4662 2918 c3 -7 13 -37 23 -66 9 -29 19 -52 21 -49 5 5 -36 127 -43
127 -3 0 -3 -6 -1 -12z"/>
<path d="M1771 2849 c-11 -34 -19 -64 -17 -66 2 -2 13 24 25 58 11 34 19 64
17 66 -2 2 -13 -24 -25 -58z"/>
<path d="M7361 2716 c-28 -69 -51 -127 -51 -130 0 -3 7 -6 15 -6 8 0 23 17 33
38 17 36 18 37 72 37 54 0 55 -1 73 -37 9 -21 24 -38 32 -38 8 0 15 3 15 6 0
3 -23 61 -51 130 -38 93 -56 124 -69 124 -13 0 -31 -31 -69 -124z m98 17 l21
-53 -49 0 -50 0 22 60 c12 32 25 56 29 52 3 -4 16 -31 27 -59z"/>
<path d="M7590 2711 l0 -131 66 0 c94 0 124 18 124 78 0 25 -6 35 -25 44 -25
11 -25 11 -5 30 26 24 26 60 -1 84 -15 13 -40 20 -90 22 l-69 4 0 -131z m128
90 c8 -5 12 -21 10 -37 -3 -27 -6 -29 -55 -32 l-53 -3 0 40 0 41 43 0 c23 0
48 -4 55 -9z m16 -117 c19 -18 21 -45 4 -62 -7 -7 -36 -12 -65 -12 l-53 0 0
45 0 45 49 0 c32 0 55 -6 65 -16z"/>
<path d="M7884 2826 c-80 -36 -84 -190 -5 -230 16 -9 51 -16 77 -16 39 0 51 5
80 34 31 31 34 39 34 95 0 52 -4 65 -28 92 -23 26 -37 32 -78 35 -29 3 -62 -1
-80 -10z m125 -40 c43 -45 36 -142 -12 -167 -37 -21 -89 -13 -114 16 -33 38
-32 117 2 150 33 34 93 34 124 1z"/>
<path d="M8173 2824 c-80 -40 -83 -188 -4 -228 43 -23 119 -20 159 4 30 19 33
24 30 63 l-3 42 -52 3 c-43 2 -53 0 -53 -12 0 -12 10 -16 36 -16 33 0 35 -2
32 -27 -4 -39 -64 -59 -113 -39 -42 18 -55 42 -55 101 0 35 6 51 25 70 31 32
96 34 125 5 14 -14 25 -18 36 -12 13 7 11 13 -16 35 -37 32 -96 36 -147 11z"/>
<path d="M8441 2716 c-28 -69 -51 -127 -51 -130 0 -3 7 -6 15 -6 8 0 23 17 33
38 17 36 18 37 72 37 54 0 55 -1 73 -37 9 -21 24 -38 32 -38 8 0 15 3 15 6 0
3 -23 61 -51 130 -38 93 -56 124 -69 124 -13 0 -31 -31 -69 -124z m98 17 l21
-53 -49 0 -50 0 22 60 c12 32 25 56 29 52 3 -4 16 -31 27 -59z"/>
<path d="M8667 2833 c-4 -3 -7 -62 -7 -130 l0 -123 65 0 c107 0 155 40 155
130 0 59 -22 95 -70 114 -40 16 -131 22 -143 9z m156 -52 c17 -16 22 -34 22
-72 0 -66 -33 -99 -101 -99 l-44 0 0 101 0 102 51 -5 c34 -4 58 -12 72 -27z"/>
<path d="M8984 2826 c-80 -36 -84 -190 -5 -230 16 -9 51 -16 77 -16 39 0 51 5
80 34 31 31 34 39 34 95 0 52 -4 65 -28 92 -23 26 -37 32 -78 35 -29 3 -62 -1
-80 -10z m125 -40 c43 -45 36 -142 -12 -167 -37 -21 -89 -13 -114 16 -33 38
-32 117 2 150 33 34 93 34 124 1z"/>
<path d="M6973 2100 c-48 -20 -59 -101 -20 -138 45 -42 127 -24 127 28 0 28
-3 30 -36 30 -21 0 -33 -4 -29 -10 3 -5 15 -10 26 -10 36 0 18 -35 -20 -38
-61 -6 -92 53 -55 106 18 26 50 28 81 7 24 -17 41 -4 19 14 -19 16 -68 22 -93
11z"/>
<path d="M7128 2104 c-15 -14 -9 -119 8 -142 20 -29 76 -30 104 -2 17 17 20
31 18 83 -4 82 -22 75 -28 -10 -5 -66 -6 -68 -34 -71 -40 -5 -50 10 -56 84 -3
36 -8 62 -12 58z"/>
<path d="M7310 2090 c-11 -11 -20 -24 -20 -29 0 -15 31 -35 69 -46 49 -14 51
-49 3 -53 -18 -2 -40 2 -48 9 -19 16 -30 4 -14 -16 15 -18 91 -20 108 -3 16
16 15 55 0 65 -7 4 -29 13 -48 18 -25 8 -35 16 -35 30 0 23 40 34 58 16 6 -6
18 -11 27 -11 26 1 -29 40 -56 40 -13 0 -33 -9 -44 -20z"/>
<path d="M7445 2101 c-3 -5 7 -11 22 -13 27 -3 28 -5 31 -75 4 -96 22 -94 22
2 l0 75 31 0 c17 0 28 4 24 10 -8 13 -122 13 -130 1z"/>
<path d="M7618 2025 c-26 -62 -32 -85 -22 -85 7 0 16 11 20 25 5 21 12 25 45
25 33 0 41 -4 49 -25 9 -23 31 -36 29 -17 -2 20 -65 156 -75 159 -6 2 -27 -35
-46 -82z m72 -11 c0 -2 -11 -4 -25 -4 -28 0 -30 6 -14 47 l11 28 14 -34 c8
-18 14 -35 14 -37z"/>
<path d="M7751 2099 c1 -29 57 -154 70 -157 9 -1 24 23 41 65 43 107 43 106
28 101 -7 -2 -25 -35 -40 -73 l-28 -70 -16 39 c-9 22 -19 50 -22 63 -7 27 -34
53 -33 32z"/>
<path d="M7952 2094 c-33 -23 -45 -60 -31 -101 12 -37 34 -53 76 -53 39 0 70
24 78 61 17 78 -61 137 -123 93z m82 -20 c19 -18 21 -85 4 -102 -20 -20 -76
-15 -88 7 -36 69 33 147 84 95z"/>
<path d="M8177 2104 c-4 -4 -7 -43 -7 -86 l0 -78 48 0 c53 1 77 14 92 54 12
32 5 69 -18 89 -19 17 -103 32 -115 21z m91 -30 c15 -10 22 -25 22 -49 0 -41
-22 -65 -61 -65 l-29 0 0 65 c0 61 1 65 23 65 12 0 33 -7 45 -16z"/>
<path d="M8391 2088 c-5 -13 -16 -41 -26 -63 -34 -81 -35 -85 -21 -85 8 0 17
11 20 25 5 21 12 25 46 25 34 0 41 -4 46 -25 3 -14 12 -25 20 -25 14 0 8 19
-40 135 -17 40 -33 45 -45 13z m38 -48 c10 -29 9 -30 -19 -30 -28 0 -29 1 -19
30 6 17 15 30 19 30 4 0 13 -13 19 -30z"/>
<path d="M8500 2097 c0 -28 57 -152 70 -152 13 0 70 124 70 152 0 29 -19 1
-42 -62 -12 -36 -25 -65 -28 -65 -3 0 -16 29 -28 65 -23 63 -42 91 -42 62z"/>
<path d="M8677 2103 c-11 -11 -8 -163 3 -163 6 0 10 35 10 85 0 85 -1 91 -13
78z"/>
<path d="M8737 2104 c-4 -4 -7 -43 -7 -86 l0 -78 48 0 c53 1 77 14 92 54 12
32 5 69 -18 89 -19 17 -103 32 -115 21z m91 -30 c15 -10 22 -25 22 -49 0 -41
-22 -65 -61 -65 l-29 0 0 65 c0 61 1 65 23 65 12 0 33 -7 45 -16z"/>
<path d="M8977 2103 c-11 -10 -8 -163 3 -163 5 0 10 30 12 68 l3 67 43 -67
c59 -92 72 -90 72 11 0 44 -4 83 -10 86 -6 4 -10 -21 -10 -67 l-1 -73 -45 73
c-45 70 -54 79 -67 65z"/>
<path d="M9191 2088 c-5 -13 -16 -41 -26 -63 -34 -81 -35 -85 -21 -85 8 0 17
11 20 25 5 21 12 25 46 25 34 0 41 -4 46 -25 3 -14 12 -25 20 -25 14 0 8 19
-40 135 -17 40 -33 45 -45 13z m38 -48 c10 -29 9 -30 -19 -30 -28 0 -29 1 -19
30 6 17 15 30 19 30 4 0 13 -13 19 -30z"/>
<path d="M9310 2025 l0 -85 56 0 c34 0 53 4 49 10 -3 6 -24 10 -46 10 l-39 0
0 75 c0 43 -4 75 -10 75 -6 0 -10 -35 -10 -85z"/>
<path d="M9447 2103 c-4 -3 -7 -42 -7 -85 l0 -78 65 0 c37 0 65 4 65 10 0 6
-25 10 -56 10 -54 0 -55 0 -52 28 3 25 7 27 53 31 l50 5 -50 5 c-45 5 -50 8
-50 31 0 23 4 25 53 28 30 2 50 7 47 13 -7 10 -108 13 -118 2z"/>
</g>
</svg>
