<svg xmlns="http://www.w3.org/2000/svg" version="1.1" width="165px" height="165px">
<defs><style>rect{shape-rendering:crispEdges}</style></defs>
<path class="qr-4 " stroke="transparent" fill="#fff" fill-opacity="1" d="M70 20 h15 v5 h-15Z M90 20 h10 v5 h-10Z M65 25 h35 v5 h-35Z M65 30 h10 v5 h-10Z M90 30 h10 v5 h-10Z M70 35 h5 v5 h-5Z M80 35 h5 v5 h-5Z M100 35 h5 v5 h-5Z M80 40 h10 v5 h-10Z M70 45 h10 v5 h-10Z M95 45 h5 v5 h-5Z M70 55 h5 v5 h-5Z M80 55 h15 v5 h-15Z M65 60 h30 v5 h-30Z M20 65 h5 v5 h-5Z M45 65 h5 v5 h-5Z M60 65 h5 v5 h-5Z M70 65 h15 v5 h-15Z M90 65 h10 v5 h-10Z M110 65 h5 v5 h-5Z M120 65 h15 v5 h-15Z M140 65 h5 v5 h-5Z M20 70 h5 v5 h-5Z M30 70 h5 v5 h-5Z M40 70 h5 v5 h-5Z M60 70 h25 v5 h-25Z M90 70 h10 v5 h-10Z M110 70 h5 v5 h-5Z M125 70 h20 v5 h-20Z M20 75 h5 v5 h-5Z M30 75 h10 v5 h-10Z M55 75 h20 v5 h-20Z M90 75 h5 v5 h-5Z M100 75 h5 v5 h-5Z M115 75 h10 v5 h-10Z M135 75 h10 v5 h-10Z M30 80 h15 v5 h-15Z M60 80 h5 v5 h-5Z M70 80 h5 v5 h-5Z M80 80 h5 v5 h-5Z M95 80 h10 v5 h-10Z M115 80 h5 v5 h-5Z M125 80 h5 v5 h-5Z M20 85 h30 v5 h-30Z M55 85 h5 v5 h-5Z M65 85 h5 v5 h-5Z M80 85 h10 v5 h-10Z M105 85 h5 v5 h-5Z M125 85 h15 v5 h-15Z M20 90 h5 v5 h-5Z M30 90 h10 v5 h-10Z M55 90 h10 v5 h-10Z M70 90 h10 v5 h-10Z M85 90 h20 v5 h-20Z M110 90 h10 v5 h-10Z M125 90 h5 v5 h-5Z M140 90 h5 v5 h-5Z M25 95 h10 v5 h-10Z M40 95 h5 v5 h-5Z M55 95 h10 v5 h-10Z M70 95 h10 v5 h-10Z M85 95 h5 v5 h-5Z M100 95 h10 v5 h-10Z M125 95 h15 v5 h-15Z M20 100 h15 v5 h-15Z M45 100 h5 v5 h-5Z M60 100 h15 v5 h-15Z M80 100 h5 v5 h-5Z M90 100 h5 v5 h-5Z M75 105 h5 v5 h-5Z M85 105 h15 v5 h-15Z M125 105 h5 v5 h-5Z M135 105 h5 v5 h-5Z M65 110 h10 v5 h-10Z M95 110 h5 v5 h-5Z M125 110 h5 v5 h-5Z M65 115 h5 v5 h-5Z M75 115 h5 v5 h-5Z M85 115 h10 v5 h-10Z M125 115 h10 v5 h-10Z M140 115 h5 v5 h-5Z M65 120 h5 v5 h-5Z M80 120 h10 v5 h-10Z M95 120 h5 v5 h-5Z M130 120 h10 v5 h-10Z M65 125 h15 v5 h-15Z M90 125 h5 v5 h-5Z M100 125 h5 v5 h-5Z M115 125 h5 v5 h-5Z M65 130 h10 v5 h-10Z M85 130 h10 v5 h-10Z M100 130 h10 v5 h-10Z M115 130 h5 v5 h-5Z M125 130 h5 v5 h-5Z M140 130 h5 v5 h-5Z M70 135 h5 v5 h-5Z M95 135 h10 v5 h-10Z M110 135 h10 v5 h-10Z M125 135 h5 v5 h-5Z M135 135 h10 v5 h-10Z M70 140 h5 v5 h-5Z M90 140 h15 v5 h-15Z " /><path class="qr-6 " stroke="transparent" fill="#fff" fill-opacity="1" d="M25 25 h25 v5 h-25Z M115 25 h25 v5 h-25Z M25 30 h5 v5 h-5Z M45 30 h5 v5 h-5Z M115 30 h5 v5 h-5Z M135 30 h5 v5 h-5Z M25 35 h5 v5 h-5Z M45 35 h5 v5 h-5Z M115 35 h5 v5 h-5Z M135 35 h5 v5 h-5Z M25 40 h5 v5 h-5Z M45 40 h5 v5 h-5Z M115 40 h5 v5 h-5Z M135 40 h5 v5 h-5Z M25 45 h25 v5 h-25Z M115 45 h25 v5 h-25Z M25 115 h25 v5 h-25Z M25 120 h5 v5 h-5Z M45 120 h5 v5 h-5Z M25 125 h5 v5 h-5Z M45 125 h5 v5 h-5Z M25 130 h5 v5 h-5Z M45 130 h5 v5 h-5Z M25 135 h25 v5 h-25Z " /><path class="qr-8 " stroke="transparent" fill="#fff" fill-opacity="1" d="M55 20 h5 v5 h-5Z M105 20 h5 v5 h-5Z M55 25 h5 v5 h-5Z M105 25 h5 v5 h-5Z M55 30 h5 v5 h-5Z M105 30 h5 v5 h-5Z M55 35 h5 v5 h-5Z M105 35 h5 v5 h-5Z M55 40 h5 v5 h-5Z M105 40 h5 v5 h-5Z M55 45 h5 v5 h-5Z M105 45 h5 v5 h-5Z M55 50 h5 v5 h-5Z M105 50 h5 v5 h-5Z M20 55 h40 v5 h-40Z M105 55 h40 v5 h-40Z M20 105 h40 v5 h-40Z M55 110 h5 v5 h-5Z M55 115 h5 v5 h-5Z M55 120 h5 v5 h-5Z M55 125 h5 v5 h-5Z M55 130 h5 v5 h-5Z M55 135 h5 v5 h-5Z M55 140 h5 v5 h-5Z " /><path class="qr-10 " stroke="transparent" fill="#fff" fill-opacity="1" d="M105 105 h15 v5 h-15Z M105 110 h5 v5 h-5Z M115 110 h5 v5 h-5Z M105 115 h15 v5 h-15Z " /><path class="qr-12 " stroke="transparent" fill="#fff" fill-opacity="1" d="M65 50 h5 v5 h-5Z M75 50 h5 v5 h-5Z M85 50 h5 v5 h-5Z M95 50 h5 v5 h-5Z M50 65 h5 v5 h-5Z M50 75 h5 v5 h-5Z M50 85 h5 v5 h-5Z M50 95 h5 v5 h-5Z " /><path class="qr-14 " stroke="transparent" fill="#fff" fill-opacity="1" d="M60 25 h5 v5 h-5Z M60 45 h5 v5 h-5Z M60 55 h5 v5 h-5Z M40 60 h10 v5 h-10Z M55 60 h5 v5 h-5Z M110 60 h10 v5 h-10Z M135 60 h5 v5 h-5Z M60 110 h5 v5 h-5Z M60 115 h5 v5 h-5Z M60 120 h5 v5 h-5Z " /><path class="qr-18 " stroke="transparent" fill="#fff" fill-opacity="1" d="M0 0 h165 v5 h-165Z M0 5 h165 v5 h-165Z M0 10 h165 v5 h-165Z M0 15 h165 v5 h-165Z M0 20 h20 v5 h-20Z M145 20 h20 v5 h-20Z M0 25 h20 v5 h-20Z M145 25 h20 v5 h-20Z M0 30 h20 v5 h-20Z M145 30 h20 v5 h-20Z M0 35 h20 v5 h-20Z M145 35 h20 v5 h-20Z M0 40 h20 v5 h-20Z M145 40 h20 v5 h-20Z M0 45 h20 v5 h-20Z M145 45 h20 v5 h-20Z M0 50 h20 v5 h-20Z M145 50 h20 v5 h-20Z M0 55 h20 v5 h-20Z M145 55 h20 v5 h-20Z M0 60 h20 v5 h-20Z M145 60 h20 v5 h-20Z M0 65 h20 v5 h-20Z M145 65 h20 v5 h-20Z M0 70 h20 v5 h-20Z M145 70 h20 v5 h-20Z M0 75 h20 v5 h-20Z M145 75 h20 v5 h-20Z M0 80 h20 v5 h-20Z M145 80 h20 v5 h-20Z M0 85 h20 v5 h-20Z M145 85 h20 v5 h-20Z M0 90 h20 v5 h-20Z M145 90 h20 v5 h-20Z M0 95 h20 v5 h-20Z M145 95 h20 v5 h-20Z M0 100 h20 v5 h-20Z M145 100 h20 v5 h-20Z M0 105 h20 v5 h-20Z M145 105 h20 v5 h-20Z M0 110 h20 v5 h-20Z M145 110 h20 v5 h-20Z M0 115 h20 v5 h-20Z M145 115 h20 v5 h-20Z M0 120 h20 v5 h-20Z M145 120 h20 v5 h-20Z M0 125 h20 v5 h-20Z M145 125 h20 v5 h-20Z M0 130 h20 v5 h-20Z M145 130 h20 v5 h-20Z M0 135 h20 v5 h-20Z M145 135 h20 v5 h-20Z M0 140 h20 v5 h-20Z M145 140 h20 v5 h-20Z M0 145 h165 v5 h-165Z M0 150 h165 v5 h-165Z M0 155 h165 v5 h-165Z M0 160 h165 v5 h-165Z " /><path class="qr-512 " stroke="transparent" fill="#000" fill-opacity="1" d="M60 105 h5 v5 h-5Z " /><path class="qr-1024 " stroke="transparent" fill="#000" fill-opacity="1" d="M65 20 h5 v5 h-5Z M85 20 h5 v5 h-5Z M100 20 h5 v5 h-5Z M100 25 h5 v5 h-5Z M75 30 h15 v5 h-15Z M100 30 h5 v5 h-5Z M65 35 h5 v5 h-5Z M75 35 h5 v5 h-5Z M85 35 h15 v5 h-15Z M65 40 h15 v5 h-15Z M90 40 h15 v5 h-15Z M65 45 h5 v5 h-5Z M80 45 h15 v5 h-15Z M100 45 h5 v5 h-5Z M65 55 h5 v5 h-5Z M75 55 h5 v5 h-5Z M95 55 h10 v5 h-10Z M95 60 h10 v5 h-10Z M25 65 h20 v5 h-20Z M55 65 h5 v5 h-5Z M65 65 h5 v5 h-5Z M85 65 h5 v5 h-5Z M100 65 h10 v5 h-10Z M115 65 h5 v5 h-5Z M135 65 h5 v5 h-5Z M25 70 h5 v5 h-5Z M35 70 h5 v5 h-5Z M45 70 h5 v5 h-5Z M55 70 h5 v5 h-5Z M85 70 h5 v5 h-5Z M100 70 h10 v5 h-10Z M115 70 h10 v5 h-10Z M25 75 h5 v5 h-5Z M40 75 h10 v5 h-10Z M75 75 h15 v5 h-15Z M95 75 h5 v5 h-5Z M105 75 h10 v5 h-10Z M125 75 h10 v5 h-10Z M20 80 h10 v5 h-10Z M45 80 h5 v5 h-5Z M55 80 h5 v5 h-5Z M65 80 h5 v5 h-5Z M75 80 h5 v5 h-5Z M85 80 h10 v5 h-10Z M105 80 h10 v5 h-10Z M120 80 h5 v5 h-5Z M130 80 h15 v5 h-15Z M60 85 h5 v5 h-5Z M70 85 h10 v5 h-10Z M90 85 h15 v5 h-15Z M110 85 h15 v5 h-15Z M140 85 h5 v5 h-5Z M25 90 h5 v5 h-5Z M40 90 h10 v5 h-10Z M65 90 h5 v5 h-5Z M80 90 h5 v5 h-5Z M105 90 h5 v5 h-5Z M120 90 h5 v5 h-5Z M130 90 h10 v5 h-10Z M20 95 h5 v5 h-5Z M35 95 h5 v5 h-5Z M45 95 h5 v5 h-5Z M65 95 h5 v5 h-5Z M80 95 h5 v5 h-5Z M90 95 h10 v5 h-10Z M110 95 h15 v5 h-15Z M140 95 h5 v5 h-5Z M35 100 h10 v5 h-10Z M55 100 h5 v5 h-5Z M75 100 h5 v5 h-5Z M85 100 h5 v5 h-5Z M95 100 h5 v5 h-5Z M125 100 h20 v5 h-20Z M65 105 h10 v5 h-10Z M80 105 h5 v5 h-5Z M130 105 h5 v5 h-5Z M140 105 h5 v5 h-5Z M75 110 h20 v5 h-20Z M130 110 h15 v5 h-15Z M70 115 h5 v5 h-5Z M80 115 h5 v5 h-5Z M95 115 h5 v5 h-5Z M135 115 h5 v5 h-5Z M70 120 h10 v5 h-10Z M90 120 h5 v5 h-5Z M125 120 h5 v5 h-5Z M140 120 h5 v5 h-5Z M80 125 h10 v5 h-10Z M95 125 h5 v5 h-5Z M105 125 h10 v5 h-10Z M120 125 h25 v5 h-25Z M75 130 h10 v5 h-10Z M95 130 h5 v5 h-5Z M110 130 h5 v5 h-5Z M120 130 h5 v5 h-5Z M130 130 h10 v5 h-10Z M65 135 h5 v5 h-5Z M75 135 h20 v5 h-20Z M105 135 h5 v5 h-5Z M120 135 h5 v5 h-5Z M130 135 h5 v5 h-5Z M65 140 h5 v5 h-5Z M75 140 h15 v5 h-15Z M105 140 h40 v5 h-40Z " /><path class="qr-1536 " stroke="transparent" fill="#000" fill-opacity="1" d="M20 20 h35 v5 h-35Z M110 20 h35 v5 h-35Z M20 25 h5 v5 h-5Z M50 25 h5 v5 h-5Z M110 25 h5 v5 h-5Z M140 25 h5 v5 h-5Z M20 30 h5 v5 h-5Z M30 30 h15 v5 h-15Z M50 30 h5 v5 h-5Z M110 30 h5 v5 h-5Z M120 30 h15 v5 h-15Z M140 30 h5 v5 h-5Z M20 35 h5 v5 h-5Z M30 35 h15 v5 h-15Z M50 35 h5 v5 h-5Z M110 35 h5 v5 h-5Z M120 35 h15 v5 h-15Z M140 35 h5 v5 h-5Z M20 40 h5 v5 h-5Z M30 40 h15 v5 h-15Z M50 40 h5 v5 h-5Z M110 40 h5 v5 h-5Z M120 40 h15 v5 h-15Z M140 40 h5 v5 h-5Z M20 45 h5 v5 h-5Z M50 45 h5 v5 h-5Z M110 45 h5 v5 h-5Z M140 45 h5 v5 h-5Z M20 50 h35 v5 h-35Z M110 50 h35 v5 h-35Z M20 110 h35 v5 h-35Z M20 115 h5 v5 h-5Z M50 115 h5 v5 h-5Z M20 120 h5 v5 h-5Z M30 120 h15 v5 h-15Z M50 120 h5 v5 h-5Z M20 125 h5 v5 h-5Z M30 125 h15 v5 h-15Z M50 125 h5 v5 h-5Z M20 130 h5 v5 h-5Z M30 130 h15 v5 h-15Z M50 130 h5 v5 h-5Z M20 135 h5 v5 h-5Z M50 135 h5 v5 h-5Z M20 140 h35 v5 h-35Z " /><path class="qr-2560 " stroke="transparent" fill="#000" fill-opacity="1" d="M100 100 h25 v5 h-25Z M100 105 h5 v5 h-5Z M120 105 h5 v5 h-5Z M100 110 h5 v5 h-5Z M110 110 h5 v5 h-5Z M120 110 h5 v5 h-5Z M100 115 h5 v5 h-5Z M120 115 h5 v5 h-5Z M100 120 h25 v5 h-25Z " /><path class="qr-3072 " stroke="transparent" fill="#000" fill-opacity="1" d="M60 50 h5 v5 h-5Z M70 50 h5 v5 h-5Z M80 50 h5 v5 h-5Z M90 50 h5 v5 h-5Z M100 50 h5 v5 h-5Z M50 60 h5 v5 h-5Z M50 70 h5 v5 h-5Z M50 80 h5 v5 h-5Z M50 90 h5 v5 h-5Z M50 100 h5 v5 h-5Z " /><path class="qr-3584 " stroke="transparent" fill="#000" fill-opacity="1" d="M60 20 h5 v5 h-5Z M60 30 h5 v5 h-5Z M60 35 h5 v5 h-5Z M60 40 h5 v5 h-5Z M20 60 h20 v5 h-20Z M60 60 h5 v5 h-5Z M105 60 h5 v5 h-5Z M120 60 h15 v5 h-15Z M140 60 h5 v5 h-5Z M60 125 h5 v5 h-5Z M60 130 h5 v5 h-5Z M60 135 h5 v5 h-5Z M60 140 h5 v5 h-5Z " /></svg>
