<?xml version="1.0" encoding="utf-8"?>
<!-- Generator: Adobe Illustrator 24.2.1, SVG Export Plug-In . SVG Version: 6.00 Build 0)  -->
<svg version="1.1" id="Capa_1" xmlns="http://www.w3.org/2000/svg" xmlns:xlink="http://www.w3.org/1999/xlink" x="0px" y="0px"
	 viewBox="0 0 283.5 283.5" style="enable-background:new 0 0 283.5 283.5;" xml:space="preserve">
<style type="text/css">
	.st0{fill:#FFFFFF;}
	.st1{fill:url(#SVGID_1_);}
</style>
<g>
	<circle class="st0" cx="141.7" cy="141.7" r="141.7"/>
	
		<linearGradient id="SVGID_1_" gradientUnits="userSpaceOnUse" x1="-477.1271" y1="5.2605" x2="-477.1271" y2="7.2828" gradientTransform="matrix(128 0 0 128 61214 -662)">
		<stop  offset="0" style="stop-color:#2AABEE"/>
		<stop  offset="1" style="stop-color:#229ED9"/>
	</linearGradient>
	<circle class="st1" cx="141.7" cy="141.7" r="130.4"/>
	<path class="st0" d="M64.2,140.2c41.4-17.9,68.9-29.9,82.6-35.7c39.4-16.4,47.6-19.3,52.9-19.3c1.1,0,3.8,0.2,5.5,1.6
		c1.3,1.1,1.8,2.7,2,3.8s0.4,3.5,0.2,5.5c-2.2,22.4-11.3,76.8-16.2,101.9c-2,10.6-6,14.2-9.7,14.6c-8.2,0.7-14.4-5.5-22.4-10.6
		c-12.4-8.2-19.5-13.3-31.7-21.3c-14-9.3-4.9-14.4,3.1-22.6c2-2.2,38.3-35.2,39-38.1c0-0.4,0.2-1.8-0.7-2.4c-0.7-0.7-2-0.4-2.9-0.2
		c-1.3,0.2-21.3,13.5-59.8,39.4c-5.8,4-10.9,5.8-15.3,5.8c-5.1,0-14.8-2.9-21.9-5.3c-8.9-2.9-15.9-4.4-15.3-9.3
		C54,145.5,57.4,142.8,64.2,140.2z"/>
</g>
</svg>
